<svg id="Livello_1" data-name="Livello 1" xmlns="http://www.w3.org/2000/svg" viewBox="0 0 160 160"><defs><style>.cls-1{fill:#fff;}.cls-2{fill:#009ad9;}.cls-3{fill:#bf087e;}.cls-4{fill:#ffbeb3;}.cls-5{fill:#e2a9a1;}.cls-6{fill:#8e0657;}.cls-7{fill:#bf8f8a;}.cls-8{fill:#c69691;}.cls-9{fill:#f75286;}.cls-10{fill:#e25ab1;}.cls-11{fill:#d70a7a;}</style></defs><circle class="cls-1" cx="81" cy="88.3" r="70.85"/><path class="cls-2" d="M81,17.94A70.36,70.36,0,1,1,10.65,88.3,70.43,70.43,0,0,1,81,17.94m0-1A71.36,71.36,0,1,0,152.35,88.3,71.35,71.35,0,0,0,81,16.94Z"/><path class="cls-3" d="M107.32,108.07c3.23,9.2-8.54,25.32-22.11,25.19-14.57-.14-25.68-19-21.59-27.76,3.66-7.89,19.33-7.29,21.59-7.2C87.08,98.37,104.14,99,107.32,108.07Z"/><path class="cls-4" d="M80.42,158.12A70.75,70.75,0,0,0,138,128.48c-2.61-8.73-30.21-1.91-38.48-18.38-4.68-9.33-3.44-26.73-3.44-26.73H70.86a91.5,91.5,0,0,1-.36,11.57,82.34,82.34,0,0,1-2.63,14.65c-5.1,15.39-36.88,12-39,21.08-.5,2.16.67,5.09,3.14,8.29A70.6,70.6,0,0,0,80.42,158.12Z"/><path class="cls-4" d="M114.43,48.43a2.42,2.42,0,0,0-2.49-.39c1.17-20.22-5.07-34.8-29.07-34.8S52.63,27.82,53.82,48.15a2.47,2.47,0,0,0-2.75.28c-4.15,3.49.44,16.94,5.68,17.4,5.23,17,16.81,27.81,26.12,27.81s20.85-11,26.09-27.83C114.11,65,118.53,51.87,114.43,48.43Z"/><path class="cls-5" d="M111.25,52.42s1.47-3.31,2.6-1.87c1.92,2.47-1.45,14.12-3.1,10.83Z"/><path class="cls-5" d="M54.27,52.42s-1.48-3.31-2.62-1.87C49.72,53,53.11,64.67,54.78,61.38Z"/><path class="cls-1" d="M56.15,63.41a.67.67,0,0,1-.68.68.68.68,0,1,1,0-1.36A.67.67,0,0,1,56.15,63.41Z"/><path class="cls-1" d="M110.72,63.41a.68.68,0,0,1-.69.68.68.68,0,0,1,0-1.36A.68.68,0,0,1,110.72,63.41Z"/><path class="cls-6" d="M108.1,50.37s-.09,0-.19-.11l-.16-.17a2.28,2.28,0,0,1-.23-.22A7.17,7.17,0,0,0,106,48.74a7.38,7.38,0,0,0-2.44-.83,9.27,9.27,0,0,0-3,0,32.39,32.39,0,0,0-5.7,1.76c-.82.31-1.54.55-2.1.72a10,10,0,0,1-1.07.29,2.59,2.59,0,0,1-1.42,0c-.37-.13-.61-.36-.63-.64a.94.94,0,0,1,.47-.76,3.46,3.46,0,0,1,1.21-.52c.13,0,.48-.1,1-.24s1.23-.33,2-.58,1.77-.55,2.79-.82a18,18,0,0,1,3.27-.58,9.48,9.48,0,0,1,3.29.27,7.62,7.62,0,0,1,2.62,1.27,5.69,5.69,0,0,1,1.42,1.53l.17.3.1.23C108.11,50.27,108.13,50.35,108.1,50.37Z"/><path class="cls-6" d="M57.65,50.37s.09,0,.19-.11l.16-.17a2.28,2.28,0,0,0,.23-.22,7.17,7.17,0,0,1,1.51-1.13,7.38,7.38,0,0,1,2.44-.83,9.27,9.27,0,0,1,3,0,32.39,32.39,0,0,1,5.7,1.76c.82.31,1.54.55,2.1.72a10,10,0,0,0,1.07.29,2.59,2.59,0,0,0,1.42,0c.37-.13.61-.36.63-.64a.94.94,0,0,0-.47-.76,3.46,3.46,0,0,0-1.21-.52c-.13,0-.48-.1-1-.24s-1.23-.33-2-.58-1.77-.55-2.79-.82a18.05,18.05,0,0,0-3.26-.58,9.52,9.52,0,0,0-3.3.27,7.62,7.62,0,0,0-2.62,1.27A5.69,5.69,0,0,0,58,49.61l-.17.3c0,.09-.07.17-.09.23S57.62,50.35,57.65,50.37Z"/><path class="cls-1" d="M91.08,58.31c3.52-5.35,8.69-7.41,13.69-2C100.11,63.55,93.51,59.13,91.08,58.31Z"/><path class="cls-2" d="M101.39,56.36a3.43,3.43,0,1,1-3.63-3.22A3.43,3.43,0,0,1,101.39,56.36Z"/><path d="M99.89,56.45a1.92,1.92,0,1,1-3.84.23,1.92,1.92,0,0,1,3.84-.23Z"/><path class="cls-1" d="M99.39,55.78a.52.52,0,0,1-1,.06.52.52,0,1,1,1-.06Z"/><path class="cls-7" d="M91.08,58.31c1.19-4.64,4.15-6,6.84-6.19,2.51-.13,5.44.39,6.85,4.18C99.53,52.51,94.6,54.24,91.08,58.31Z"/><path d="M91.08,58.31c2.57-4.92,5.91-4.86,7-4.92a21.5,21.5,0,0,1,5.59.49c1.52.24,3-.62,3-.37.17.92-1,3.76-3.12,2.9a18.27,18.27,0,0,0-5.71-1.3A9.19,9.19,0,0,0,94,56.23a14.67,14.67,0,0,0-1.7,1.12A9.11,9.11,0,0,1,91.08,58.31Z"/><path class="cls-1" d="M74.67,58.31C71.15,53,66,50.9,61,56.3,65.64,63.55,72.24,59.13,74.67,58.31Z"/><path class="cls-2" d="M64.36,56.36A3.43,3.43,0,1,0,68,53.14,3.43,3.43,0,0,0,64.36,56.36Z"/><path d="M65.87,56.45a1.92,1.92,0,1,0,2-1.8A1.92,1.92,0,0,0,65.87,56.45Z"/><path class="cls-1" d="M68.32,56a.52.52,0,1,0,.54-.48A.51.51,0,0,0,68.32,56Z"/><path class="cls-7" d="M74.67,58.31c-1.19-4.64-4.15-6-6.84-6.19-2.51-.13-5.44.39-6.85,4.18C66.22,52.51,71.15,54.24,74.67,58.31Z"/><path d="M74.67,58.31c-2.57-4.92-5.91-4.86-7-4.92a21.5,21.5,0,0,0-5.59.49c-1.52.24-2.95-.62-3-.37-.17.92,1,3.76,3.12,2.9a18.27,18.27,0,0,1,5.71-1.3,9.19,9.19,0,0,1,3.9,1.12,14.67,14.67,0,0,1,1.7,1.12A9.11,9.11,0,0,0,74.67,58.31Z"/><path class="cls-8" d="M82.84,73.19a2.37,2.37,0,0,1-1.45-.49l.61-.79a1.43,1.43,0,0,0,1.9-.21l.76.64A2.37,2.37,0,0,1,82.84,73.19Z"/><path class="cls-8" d="M84.57,72.43,84,71.65l0,0a5,5,0,0,1,2.33-1c.09,0,.28,0,.29-.3h1a1.25,1.25,0,0,1-1.29,1.29A4.12,4.12,0,0,0,84.57,72.43Z"/><path class="cls-8" d="M81.5,72.77a11.07,11.07,0,0,0-2.73-1,1,1,0,0,1-.77-.36,2.16,2.16,0,0,1-.11-1.67l1,.28a1.57,1.57,0,0,0,0,.78,9.88,9.88,0,0,1,3.13,1Z"/><path class="cls-9" d="M95.26,76.77c-3.57,1-9.61-.87-12.18-.87-3.21,0-9,1.74-12.43.87C74,79.65,76.6,84.67,83,84.7S91.54,80.45,95.26,76.77Z"/><path class="cls-1" d="M92.23,77.9c-2.69.7-6.37.21-9.28.21s-6.72.43-9.27-.21A20.17,20.17,0,0,0,83,80.73,19.72,19.72,0,0,0,92.23,77.9Z"/><path class="cls-5" d="M82.87,93.64c-3.78,0-7.94-1.78-11.9-5a74.07,74.07,0,0,1-1,11.45c10.38,3.27,21.27-2.64,26.17-6.49-.17-2.28-.23-4.38-.24-6C91.6,91.44,87,93.64,82.87,93.64Z"/><path class="cls-10" d="M80.85,158.65a70.53,70.53,0,0,0,37.77-10.91c-.36-2.4-1.28-4.23-3-5.3-7.83-4.85-16.44,14.74-35,13.83-17-.83-24.17-18.05-30.85-13.83-1.82,1.15-3.18,3.63-4,6.91A70.49,70.49,0,0,0,80.85,158.65Z"/><path class="cls-2" d="M62.59,106c-3.51,2.54-6.65,4.51-9.14,6-3.81,2.23-6.91,3.76-9.29,4.88-3.16,1.49-5.11,2.22-6.58,3-4.83-1.51-10.19,3.17-11.1,4a14.91,14.91,0,0,0-3.62,4.67,70.94,70.94,0,0,0,34,26C54.68,132,60.48,112.49,62.59,106Z"/><path class="cls-2" d="M131.6,119.84c-2.55-1.35-6.57-2.55-15.88-7.87-6.36-3.64-11.33-7-14.47-9.21,6.5,20.14,9.25,36.27,9.54,49.26a71.06,71.06,0,0,0,31.35-28.68C140.43,121.92,135.82,118.52,131.6,119.84Z"/><path class="cls-10" d="M65.79,103.4c-1.19-.48-6.15,6.36-16.07,20-.92,1.27-2.72,3.81-2.22,5.94.76,3.16,6,2.94,6.1,4.45.08,1.71-5.64,2.11-8.31,4.45-2,1.73-2.71,4.89-2.45,9.05a70.26,70.26,0,0,0,23.35,9.55C63.45,127.5,70.71,105.41,65.79,103.4Z"/><path class="cls-10" d="M124.33,143.48a5.8,5.8,0,0,0-1.57-2.38c-2.86-2.53-8.54-1.71-8.76-3.56s4.88-2.32,6.59-5.28c4.63-8-16.36-31.94-21.5-29.17-3.46,1.87,3.44,14.19,5.66,32.9a101.68,101.68,0,0,1,.49,18.11A70.62,70.62,0,0,0,124.33,143.48Z"/><path class="cls-11" d="M66.81,102.11c-1.18-.49-6.14,6.35-16.06,20-.93,1.28-2.72,3.81-2.22,5.94.76,3.16,6,2.94,6.1,4.45.08,1.71-5.65,2.11-8.31,4.45-2.33,2.05-2.9,6.11-2.1,11.47a70.25,70.25,0,0,0,23.25,8.92C64.37,127,71.85,104.16,66.81,102.11Z"/><path class="cls-11" d="M124.23,143.8a6.59,6.59,0,0,0-2-4c-2.87-2.53-8.55-1.71-8.76-3.56s4.87-2.32,6.58-5.27c4.63-8-16.35-31.95-21.49-29.18-3.47,1.87,3.32,14.24,5.65,32.9a104.42,104.42,0,0,1,.57,19.8A70.31,70.31,0,0,0,124.23,143.8Z"/><path class="cls-11" d="M114.14,48.23s-.91-.37-1.28-.09a2.26,2.26,0,0,0-.64,1.22,57.44,57.44,0,0,0-1,6.66l-.49-.05s.71-27.9-7-30C90,30.78,75.39,33.07,61,31.59c-1.5-.15-5.78,3.51-5.84,5.15C54.9,43.21,55,56,55,56h-.47s-4-14.14-2.91-25.92L49.82,31.6a18.48,18.48,0,0,1,8.91-15.17,4.35,4.35,0,0,1-3.33-4.9l4.11.3A13,13,0,0,1,55.12,1.19,29.78,29.78,0,0,0,70.61,4.57,3.19,3.19,0,0,1,68.87,1c4,2,8.6,2.28,13.06,2.17s9-.55,13.35.22,13.07,2.66,13.81,14.83C117.11,23.71,114.14,48.23,114.14,48.23Z"/></svg>